<?xml version="1.0" standalone="no"?>
<!DOCTYPE svg PUBLIC "-//W3C//DTD SVG 20010904//EN"
 "http://www.w3.org/TR/2001/REC-SVG-20010904/DTD/svg10.dtd">
<svg version="1.0" xmlns="http://www.w3.org/2000/svg"
 width="602.000000pt" height="602.000000pt" viewBox="0 0 602.000000 602.000000"
 preserveAspectRatio="xMidYMid meet">

<g transform="translate(0.000000,602.000000) scale(0.100000,-0.100000)"
fill="#000000" stroke="none">
<path d="M257 6009 c-96 -23 -182 -94 -226 -188 l-26 -56 0 -2755 0 -2755 33
-67 c36 -73 87 -124 161 -160 l46 -23 2765 0 2765 0 47 22 c66 30 129 92 164
160 l29 58 0 2760 0 2760 -26 56 c-34 72 -96 134 -168 168 l-56 26 -2735 2
c-1573 0 -2751 -3 -2773 -8z m5528 -102 c55 -25 93 -63 121 -122 l24 -50 0
-2719 c0 -2106 -3 -2728 -12 -2760 -16 -55 -99 -138 -154 -154 -32 -9 -654
-12 -2760 -12 -2714 0 -2719 0 -2764 21 -55 25 -95 62 -123 114 l-22 40 0
2740 0 2741 25 48 c31 61 85 105 147 122 39 10 571 12 2763 11 2592 -2 2717
-3 2755 -20z"/>
<path d="M3010 3945 l0 -1145 45 0 45 0 0 1145 0 1145 -45 0 -45 0 0 -1145z"/>
<path d="M954 4705 l-24 -25 2 -656 3 -656 24 -19 c21 -17 41 -19 193 -19 233
0 218 -17 218 255 l0 205 325 0 326 0 24 25 c24 23 25 30 25 145 0 115 -1 122
-25 145 l-24 25 -326 0 -325 0 0 130 0 130 415 0 416 0 24 25 c24 23 25 30 25
145 0 115 -1 122 -25 145 l-24 25 -611 0 -611 0 -25 -25z"/>
<path d="M4358 4715 c-32 -18 -12 23 -342 -719 -146 -329 -266 -609 -266 -622
0 -13 9 -28 19 -34 12 -6 92 -10 193 -10 222 0 218 -2 274 141 l41 104 318 0
319 0 33 -85 c64 -166 53 -160 293 -160 106 0 189 4 201 10 10 6 19 21 19 33
0 12 -129 314 -287 671 -252 569 -291 651 -318 667 -27 17 -53 19 -250 19
-173 -1 -226 -4 -247 -15z m334 -605 c43 -107 76 -195 74 -197 -2 -2 -80 -2
-174 -1 l-171 3 70 165 c39 91 77 180 85 198 7 19 19 32 26 30 7 -3 47 -92 90
-198z"/>
<path d="M1493 1916 c-128 -32 -176 -104 -175 -261 0 -161 63 -232 222 -255
85 -12 193 1 250 30 75 38 110 111 110 231 0 131 -43 206 -140 243 -59 23
-200 29 -267 12z m236 -142 c30 -25 31 -29 31 -106 0 -43 -5 -88 -10 -99 -18
-33 -64 -49 -140 -49 -123 0 -160 33 -160 140 0 64 17 108 49 125 17 9 57 14
113 15 79 0 89 -2 117 -26z"/>
<path d="M2105 1924 c-27 -2 -60 -7 -72 -9 l-23 -5 0 -250 0 -250 70 0 70 0 0
80 0 80 74 0 74 0 51 -80 51 -80 65 0 c80 0 81 4 20 102 l-45 73 26 19 c37 27
54 74 54 149 0 78 -25 122 -85 152 -32 15 -63 19 -160 21 -66 1 -142 0 -170
-2z m270 -134 c23 -19 19 -66 -7 -84 -17 -12 -48 -16 -120 -16 l-98 0 0 54 0
55 48 4 c73 7 161 0 177 -13z"/>
<path d="M3391 1919 c-53 -10 -123 -50 -143 -81 -40 -62 -54 -200 -29 -291 14
-48 56 -99 102 -123 47 -24 156 -34 255 -24 127 13 124 11 124 82 l0 60 -27
-7 c-101 -25 -241 -24 -290 3 -22 12 -26 21 -37 89 -7 42 8 131 25 149 26 25
124 37 216 24 46 -6 90 -13 99 -17 13 -5 15 4 12 58 l-3 64 -80 12 c-93 14
-162 14 -224 2z"/>
<path d="M4567 1919 c-96 -23 -139 -67 -144 -147 -8 -111 57 -161 222 -169 91
-5 135 -21 135 -48 0 -30 -40 -37 -164 -31 -67 3 -140 9 -163 12 l-43 6 0 -60
c0 -70 -6 -67 151 -82 110 -11 220 0 268 25 16 8 40 28 55 45 22 27 26 41 26
92 0 58 -2 63 -39 98 -44 42 -100 60 -184 60 -76 0 -116 10 -127 31 -7 13 -5
22 7 34 14 15 33 17 142 12 69 -3 139 -9 154 -13 l28 -7 -3 64 -3 64 -80 12
c-94 14 -185 15 -238 2z"/>
<path d="M750 1660 l0 -250 70 0 70 0 0 95 0 95 135 0 135 0 0 60 0 60 -135 0
-135 0 0 35 0 35 170 0 170 0 0 60 0 60 -240 0 -240 0 0 -250z"/>
<path d="M2640 1660 l0 -250 240 0 240 0 0 60 0 60 -170 0 -170 0 0 35 0 35
135 0 135 0 0 60 0 60 -135 0 -135 0 0 35 0 35 170 0 170 0 0 60 0 60 -240 0
-240 0 0 -250z"/>
<path d="M3975 1879 c-39 -73 -215 -452 -215 -460 0 -5 29 -9 64 -9 l64 0 21
50 22 50 125 0 126 0 21 -50 21 -50 63 0 c44 0 63 4 63 13 0 6 -50 119 -112
250 l-112 237 -68 0 c-65 0 -68 -1 -83 -31z m121 -175 c19 -42 33 -79 31 -81
-3 -2 -36 -3 -75 -1 l-70 3 35 78 c20 42 38 77 40 77 2 0 20 -34 39 -76z"/>
<path d="M4972 1853 l3 -58 98 -3 97 -3 0 -189 0 -190 70 0 70 0 0 190 0 190
95 0 95 0 0 60 0 60 -265 0 -266 0 3 -57z"/>
<path d="M2391 1019 c-53 -10 -123 -50 -143 -81 -40 -62 -54 -200 -29 -291 14
-48 56 -99 102 -123 47 -24 156 -34 255 -24 127 13 124 11 124 82 l0 60 -27
-7 c-101 -25 -241 -24 -290 3 -22 12 -26 21 -37 89 -7 42 8 131 25 149 26 25
124 37 216 24 46 -6 90 -13 99 -17 13 -5 15 4 12 58 l-3 64 -80 12 c-93 14
-162 14 -224 2z"/>
<path d="M1205 979 c-39 -73 -215 -452 -215 -460 0 -5 29 -9 64 -9 l64 0 21
50 22 50 125 0 126 0 21 -50 21 -50 63 0 c44 0 63 4 63 13 0 6 -50 119 -112
250 l-112 237 -68 0 c-65 0 -68 -1 -83 -31z m121 -175 c19 -42 33 -79 31 -81
-3 -2 -36 -3 -75 -1 l-70 3 35 78 c20 42 38 77 40 77 2 0 20 -34 39 -76z"/>
<path d="M1640 760 l0 -250 240 0 240 0 0 60 0 60 -170 0 -170 0 0 190 0 190
-70 0 -70 0 0 -250z"/>
<path d="M2780 760 l0 -250 70 0 70 0 0 95 0 95 130 0 130 0 0 -95 0 -95 70 0
70 0 0 250 0 250 -70 0 -70 0 0 -95 0 -95 -130 0 -130 0 0 95 0 95 -70 0 -70
0 0 -250z"/>
<path d="M3420 760 l0 -250 240 0 240 0 0 60 0 60 -170 0 -170 0 0 35 0 35
135 0 135 0 0 60 0 60 -135 0 -135 0 0 35 0 35 170 0 170 0 0 60 0 60 -240 0
-240 0 0 -250z"/>
<path d="M3990 760 l0 -250 70 0 69 0 3 145 3 146 68 -96 c62 -87 70 -95 101
-95 30 0 38 8 102 97 l69 98 3 -148 3 -147 64 0 65 0 0 250 0 250 -67 0 -68
-1 -84 -124 c-46 -69 -85 -125 -87 -125 -1 0 -41 56 -89 125 l-86 125 -69 0
-70 0 0 -250z"/>
<path d="M4690 1005 c0 -13 26 -53 112 -177 l88 -128 0 -95 0 -95 70 0 70 0 0
95 0 96 92 132 c50 73 93 142 96 155 4 22 3 23 -63 20 l-68 -3 -61 -97 c-34
-54 -63 -98 -66 -98 -3 0 -32 44 -66 98 l-61 97 -71 3 c-40 2 -72 0 -72 -3z"/>
</g>
</svg>
