<?xml version="1.0" encoding="UTF-8" standalone="no"?>
<!-- Created with Inkscape (http://www.inkscape.org/) -->

<svg
   width="138mm"
   height="138mm"
   viewBox="0 0 138.00001 138"
   version="1.1"
   id="svg1"
   inkscape:version="1.4.2 (f4327f4, 2025-05-13)"
   sodipodi:docname="forecast_alchemy_logo.svg"
   xmlns:inkscape="http://www.inkscape.org/namespaces/inkscape"
   xmlns:sodipodi="http://sodipodi.sourceforge.net/DTD/sodipodi-0.dtd"
   xmlns="http://www.w3.org/2000/svg"
   xmlns:svg="http://www.w3.org/2000/svg">
  <sodipodi:namedview
     id="namedview1"
     pagecolor="#ffffff"
     bordercolor="#000000"
     borderopacity="0.25"
     inkscape:showpageshadow="2"
     inkscape:pageopacity="0.0"
     inkscape:pagecheckerboard="0"
     inkscape:deskcolor="#d1d1d1"
     inkscape:document-units="mm"
     inkscape:zoom="1.0396254"
     inkscape:cx="136.10671"
     inkscape:cy="415.05334"
     inkscape:window-width="3440"
     inkscape:window-height="1369"
     inkscape:window-x="-8"
     inkscape:window-y="-8"
     inkscape:window-maximized="1"
     inkscape:current-layer="layer1" />
  <defs
     id="defs1">
    <clipPath
       id="clip0">
      <rect
         x="55"
         y="201"
         width="500"
         height="372"
         id="rect1" />
    </clipPath>
    <clipPath
       id="clip0-4">
      <rect
         x="59"
         y="207"
         width="501"
         height="372"
         id="rect1-8" />
    </clipPath>
    <clipPath
       id="clip0-2">
      <rect
         x="59"
         y="207"
         width="501"
         height="372"
         id="rect1-4" />
    </clipPath>
    <clipPath
       id="clip0-22">
      <rect
         x="390"
         y="61"
         width="500"
         height="549"
         id="rect1-1" />
    </clipPath>
  </defs>
  <g
     inkscape:label="Camada 1"
     inkscape:groupmode="layer"
     id="layer1"
     transform="translate(-69.082679,-38.709925)">
    <g
       transform="matrix(0.26458333,0,0,0.26458333,-31.243245,13.718595)"
       id="g10">
      <path
         d="m 579.228,180.145 c 80.251,-18.425 159.701,29.329 177.456,106.662 17.755,77.332 -32.908,154.96 -113.159,173.385 C 563.274,478.617 483.824,430.863 466.069,353.53 448.314,276.198 498.977,198.57 579.228,180.145 Z"
         fill="#3370f5"
         fill-rule="evenodd"
         fill-opacity="0.85098"
         id="path1" />
      <path
         d="m 695.81,166.065 c 51.204,-11.757 101.897,18.713 113.226,68.055 11.328,49.343 -20.997,98.873 -72.201,110.629 C 685.63,356.505 634.937,326.036 623.609,276.693 612.28,227.351 644.605,177.821 695.81,166.065 Z"
         fill="#fcb75e"
         fill-rule="evenodd"
         fill-opacity="0.85098"
         id="path2" />
      <path
         d="m 530.836,156.371 c 62.749,-14.407 124.871,22.932 138.754,83.399 13.883,60.467 -25.731,121.163 -88.479,135.57 -62.749,14.407 -124.871,-22.932 -138.754,-83.399 -13.883,-60.466 25.731,-121.163 88.479,-135.57 z"
         fill="#8247cf"
         fill-rule="evenodd"
         fill-opacity="0.85098"
         id="path3" />
      <path
         d="m 843.929,282.249 c 13.492,-3.098 26.848,4.93 29.833,17.931 2.985,13.001 -5.532,26.051 -19.023,29.149 -13.492,3.098 -26.849,-4.931 -29.834,-17.932 -2.985,-13 5.533,-26.051 19.024,-29.148 z"
         fill="#3370f5"
         fill-rule="evenodd"
         fill-opacity="0.85098"
         id="path4" />
      <path
         d="m 809.13,348.603 c 6.738,-1.547 13.409,2.463 14.9,8.956 1.491,6.493 -2.763,13.01 -9.501,14.557 -6.738,1.547 -13.409,-2.462 -14.899,-8.955 -1.491,-6.493 2.763,-13.011 9.5,-14.558 z"
         fill="#ff7581"
         fill-rule="evenodd"
         fill-opacity="0.847059"
         id="path5" />
      <path
         d="m 648.317,109.821 c 10.462,-2.402 20.819,3.823 23.134,13.905 2.315,10.081 -4.29,20.201 -14.752,22.603 -10.462,2.402 -20.82,-3.823 -23.134,-13.905 -2.315,-10.081 4.29,-20.201 14.752,-22.603 z"
         fill="#ff7581"
         fill-rule="evenodd"
         fill-opacity="0.847059"
         id="path6" />
      <path
         d="M 0,12.165 C 0,5.44647 5.2484,0 11.7226,0 c 6.4742,0 11.7226,5.44647 11.7226,12.165 0,6.7186 -5.2484,12.1651 -11.7226,12.1651 C 5.2484,24.3301 0,18.8836 0,12.165 Z"
         fill="#8247cf"
         fill-rule="evenodd"
         fill-opacity="0.85098"
         transform="matrix(0.223773,0.974641,0.974641,-0.223773,403.252,320.818)"
         id="path7" />
      <path
         d="m 454.62,425.837 c 7.59,-1.743 15.105,2.774 16.784,10.088 1.679,7.315 -3.113,14.657 -10.703,16.399 -7.59,1.743 -15.105,-2.773 -16.784,-10.088 -1.68,-7.314 3.112,-14.657 10.703,-16.399 z"
         fill="#fcb75e"
         fill-rule="evenodd"
         fill-opacity="0.85098"
         id="path8" />
      <path
         d="m 641.469,282.444 c 51.325,-11.784 102.137,18.757 113.493,68.215 11.355,49.458 -21.047,99.104 -72.371,110.888 -51.325,11.784 -102.137,-18.757 -113.492,-68.215 -11.356,-49.458 21.046,-99.104 72.37,-110.888 z"
         fill="#ff7581"
         fill-rule="evenodd"
         fill-opacity="0.847059"
         id="path9" />
      <text
         font-family="'GetVoIP Grotesque', 'GetVoIP Grotesque_MSFontService', sans-serif"
         font-weight="700"
         font-size="59px"
         transform="translate(473.82,600)"
         id="text9">ALCHEMY</text>
      <text
         font-family="'GetVoIP Grotesque', 'GetVoIP Grotesque_MSFontService', sans-serif"
         font-weight="700"
         font-size="59px"
         transform="translate(454.333,535)"
         id="text10">FORECAST</text>
    </g>
  </g>
</svg>
