<?xml version="1.0" encoding="UTF-8" standalone="no"?>
<!-- Created with Inkscape (http://www.inkscape.org/) -->

<svg
   version="1.1"
   id="svg1"
   width="901"
   height="347"
   viewBox="0 0 901 347"
   sodipodi:docname="Forecast Alchemy Logo.svg"
   inkscape:version="1.4.2 (f4327f4, 2025-05-13)"
   xmlns:inkscape="http://www.inkscape.org/namespaces/inkscape"
   xmlns:sodipodi="http://sodipodi.sourceforge.net/DTD/sodipodi-0.dtd"
   xmlns="http://www.w3.org/2000/svg"
   xmlns:svg="http://www.w3.org/2000/svg">
  <defs
     id="defs1">
    <linearGradient
       id="swatch20"
       inkscape:swatch="solid">
      <stop
         style="stop-color:#000000;stop-opacity:1;"
         offset="0"
         id="stop20" />
    </linearGradient>
    <linearGradient
       id="swatch75"
       inkscape:swatch="solid">
      <stop
         style="stop-color:#000000;stop-opacity:1;"
         offset="0"
         id="stop75" />
    </linearGradient>
  </defs>
  <sodipodi:namedview
     id="namedview1"
     pagecolor="#ffffff"
     bordercolor="#000000"
     borderopacity="0.25"
     inkscape:showpageshadow="2"
     inkscape:pageopacity="0.0"
     inkscape:pagecheckerboard="0"
     inkscape:deskcolor="#d1d1d1"
     inkscape:zoom="1"
     inkscape:cx="387.5"
     inkscape:cy="230.5"
     inkscape:window-width="3440"
     inkscape:window-height="1369"
     inkscape:window-x="-8"
     inkscape:window-y="-8"
     inkscape:window-maximized="1"
     inkscape:current-layer="g1" />
  <g
     inkscape:groupmode="layer"
     inkscape:label="Image"
     id="g1">
    <path
       style="opacity:1;mix-blend-mode:normal;fill:#002255;fill-opacity:1;fill-rule:evenodd;stroke-width:1.04015"
       d="M 2.2065647,141.08881 C -2.9625889,138.12812 9.0486182,113.38619 26.312626,95.819331 68.266914,58.641795 106.37552,57.299614 159.51792,55.875728 c 32.26607,-0.628573 79.55265,3.613662 96.97118,-27.369071 -0.95169,-0.860871 -14.19573,8.911595 -20.16658,10.419885 -38.86758,10.832234 -58.33776,-11.086746 -101.35228,-13.4891 -23.62643,-1.319533 -41.126642,1.811498 -62.336994,11.152954 -18.627503,8.203917 -33.412153,19.025636 -45.002275,32.9397 -4.494229,5.395369 -6.621843,7.172216 -8.588081,7.172216 -2.613775,0 -2.613775,0 -0.919649,-5.193674 C 24.827359,50.955848 45.906415,30.731737 75.367324,16.586319 92.775629,8.227861 109.70801,4.4758889 129.91875,4.4985064 c 15.97088,0.017873 27.81038,2.4755734 49.62088,10.3005416 37.59887,13.489377 50.02281,13.964406 72.44919,2.209062 C 276.93863,3.7386254 293,1.8034098 293,3.8381282 293,5.5263929 278.78296,30.531805 267.9348,41.360609 257.70326,51.573882 245.39058,60.823408 231.32208,66.116622 177.28557,86.447644 93.394104,48.803662 9.2626069,135.31663 4.612658,139.64426 4.7105749,142.523 2.2065647,141.08881 Z"
       id="path64" />
    <path
       style="opacity:0.85182963;mix-blend-mode:normal;fill-opacity:1;fill:#000000;fill-rule:evenodd"
       d="m 334.85136,177.51803 c -0.26508,-0.26508 2.93001,-17.02758 7.10021,-37.25 l 7.58218,-36.76803 8.86747,-0.29089 c 8.86747,-0.29089 8.86747,-0.29089 8.22528,3.72519 -0.6422,4.01608 -0.6422,4.01608 3.01227,1.53609 4.42021,-2.99963 11.30141,-5.13803 19.52926,-6.06891 6.08822,-0.6888 6.11871,-0.67945 5.54884,1.70296 -0.31517,1.31756 -1.11394,5.20806 -1.77505,8.64556 -1.20203,6.25 -1.20203,6.25 -6.03698,6.25 -5.64976,0 -13.03128,2.29858 -17.17663,5.34875 -5.49886,4.04608 -7.57528,9.34266 -12.27358,31.3077 C 355.00459,167.1107 353,176.82383 353,177.24118 c 0,0.81557 -17.34532,1.08016 -18.14864,0.27685 z"
       id="path63" />
    <path
       style="opacity:0.85182963;mix-blend-mode:normal;fill-opacity:1;fill:#000000;fill-rule:evenodd"
       d="m 154.00193,176.75 c 0.002,-1.024 17.74029,-86.948205 19.50915,-94.5 C 174.0381,80 174.0381,80 211.13568,80 c 37.09758,0 38.80731,-7.136247 38.20518,-4.886247 -0.33117,1.2375 -1.56403,8.497543 -2.19188,11.651466 -1.14153,5.734404 -2.40305,9.20359 -29.95481,9.469186 L 189.64242,96.5 186.83694,110 c -1.54301,7.425 -2.81256,13.8375 -2.82121,14.25 -0.009,0.4125 11.20478,1.27563 24.40478,1.27563 13.63472,0 19.8474,-0.25344 22.37829,0.80734 2.5309,1.06078 1.38001,3.43578 0.28761,8.69266 -1.24683,6 -1.66733,5.47437 -26.21709,5.74149 l -24.54976,0.26712 -3.29672,16.23288 C 172.39933,180.03302 173.77196,178 163.02475,178 c -6.55416,0 -9.02422,-0.3422 -9.02282,-1.25 z"
       id="path62" />
    <path
       style="opacity:0.85182963;mix-blend-mode:normal;fill-opacity:1;fill:#000000;fill-rule:evenodd"
       d="m 760.64317,177.94724 c -5.5907,-1.39207 -9.32746,-3.88413 -12.33792,-8.22823 -4.13919,-5.97284 -4.0606,-11.34149 0.48259,-32.96897 L 752.72658,118 h -5.86329 c -6.68781,0 -6.62466,0.12472 -4.72524,-9.33322 C 743.2761,103 743.2761,103 749.52964,103 c 6.99287,0 6.20879,0.95025 8.45764,-10.25 C 759.1418,87 759.1418,87 768.44694,87 c 9.30514,0 9.30514,0 7.96423,6.25 -2.23435,10.41432 -2.81956,9.75 8.58883,9.75 5.5,0 10,0.24867 10,0.55259 0,0.30393 -0.71107,3.67893 -1.58015,7.5 C 791.83969,118 791.83969,118 781.49074,118 c -10.34894,0 -10.34894,0 -11.50649,5.75 -0.63666,3.1625 -2.24356,10.8485 -3.5709,17.08 -2.83752,13.32136 -2.98111,16.9144 -0.80038,20.02782 1.44605,2.06453 2.24803,2.26294 7.75,1.91735 3.37536,-0.21201 6.89706,-0.73576 7.82598,-1.16389 1.36029,-0.62693 1.89269,-0.0218 2.7359,3.10964 2.73462,10.15559 2.8375,9.76847 -3.08301,11.6004 -6.95751,2.1528 -15.36466,2.82953 -20.19867,1.62588 z"
       id="path61" />
    <path
       style="opacity:0.85182963;mix-blend-mode:normal;fill-opacity:1;fill:#000000;fill-rule:evenodd"
       d="m 681.01694,177.87424 c -7.81209,-0.90438 -18.42937,-3.9929 -21.53644,-6.26484 -1.71224,-1.25202 -1.60545,-1.69376 1.94341,-8.03973 2.95706,-5.28771 4.10811,-6.55839 5.41564,-5.97844 9.04092,4.01 16.2793,5.67238 25.16045,5.7784 7.88742,0.0942 10.09411,-0.23295 13,-1.92702 2.80076,-1.63278 3.55983,-2.74326 3.79945,-5.55847 0.3731,-4.38322 -1.01452,-5.11399 -16.00736,-8.43013 -18.6847,-4.1327 -24.82059,-9.12521 -24.77013,-20.15435 0.0477,-10.42261 7.20914,-18.73754 19.45492,-22.58849 8.00458,-2.51721 24.56199,-2.93923 32.52312,-0.82894 5.97394,1.58353 12,4.22029 12,5.25071 0,0.45606 -1.43077,3.73065 -3.1795,7.27688 -3.17949,6.44768 -3.17949,6.44768 -6.75,4.64214 -7.26005,-3.67129 -20.74394,-5.15319 -27.98723,-3.07584 -7.1679,2.05572 -10.3943,8.29176 -5.9137,11.4301 1.19326,0.83579 7.38076,2.72148 13.75,4.19043 6.36923,1.46894 13.19804,3.48412 15.17511,4.47816 4.77567,2.40115 9.87008,8.33661 10.05069,11.70999 0.84616,15.80483 -7.06982,24.5829 -25.06329,27.79283 -8.46185,1.50954 -10.35725,1.53623 -21.06514,0.29661 z"
       id="path60" />
    <path
       style="opacity:0.85182963;mix-blend-mode:normal;fill-opacity:1;fill:#000000;fill-rule:evenodd"
       d="m 593.30526,177.99074 c -10.45021,-1.52653 -19.41676,-8.02386 -24.31853,-17.62166 -5.77985,-10.57187 -3.95633,-23.10619 1.21263,-33.45551 6.49147,-13.13028 17.2774,-21.39516 31.33762,-24.01292 11.6606,-2.171 25.09557,0.96143 31.09545,7.25005 2.86757,3.00556 2.86757,3.00556 3.91896,-1.82257 1.0514,-4.82813 1.0514,-4.82813 10.25,-5.11566 5.08114,-0.15882 9.19861,0.12052 9.19861,0.62405 0,2.62659 -15.1154,72.67888 -15.83808,73.40156 -0.4684,0.4684 -4.40895,0.71895 -8.75678,0.55678 C 623.5,177.5 623.5,177.5 623.83212,174.18562 c 0.33212,-3.31439 0.33212,-3.31439 -3.60887,-0.82655 -6.57863,4.1529 -17.42242,6.01875 -26.91799,4.63167 z m 24.42923,-18.63001 c 6.4649,-3.99694 10.85489,-10.0658 12.29332,-16.99468 C 633.16238,127.26692 625.8803,118 610.88062,118 c -14.97833,0 -25.80668,10.82426 -25.85866,25.84887 -0.0465,13.44279 6.79963,19.48665 21.24706,18.75721 5.34739,-0.26998 7.75538,-0.95158 11.46547,-3.24535 z"
       id="path59" />
    <path
       style="opacity:0.85182963;mix-blend-mode:normal;fill-opacity:1;fill:#000000;fill-rule:evenodd"
       d="M 512.90306,177.93314 C 497.0922,175.6083 485.59676,164.68633 483.50328,150 c -1.51567,-10.63283 3.55559,-25.52106 11.50544,-33.77769 9.28542,-9.64374 18.92909,-13.49293 33.99128,-13.56731 11.598,-0.0573 17.37636,1.44471 24.55369,6.38226 3.73369,2.56855 10.27013,10.51705 9.34486,11.36363 -0.2192,0.20056 -3.73038,2.03298 -7.80262,4.07204 -7.40406,3.70739 -7.40406,3.70739 -9.92047,0.49201 -3.59229,-4.59009 -9.3768,-6.92102 -17.17546,-6.92102 -14.19701,0 -24.42406,9.51296 -25.73181,23.9351 -0.66203,7.30097 0.93266,12.11213 5.27974,15.92892 4.19133,3.68004 10.29047,5.43605 16.95995,4.88296 5.87835,-0.48747 14.13688,-4.3191 16.2455,-7.53726 C 541.56553,154.01414 542.5585,153 542.95997,153 544.53892,153 556,161.02716 556,162.13303 c 0,2.20286 -8.36449,9.14263 -14.44158,11.98174 -3.33213,1.55672 -9.20842,3.28382 -13.05842,3.838 -7.8194,1.12556 -7.80858,1.12557 -15.59694,-0.0196 z"
       id="path58" />
    <path
       style="opacity:0.85182963;mix-blend-mode:normal;fill-opacity:1;fill:#000000;fill-rule:evenodd"
       d="m 423.9854,177.95334 c -15.36337,-2.29174 -25.10236,-10.56388 -28.73261,-24.40501 -3.97932,-15.17208 3.4823,-34.13083 17.08674,-43.41457 16.43826,-11.217552 41.61373,-10.261048 53.34977,2.02695 5.59603,5.85922 8.28976,13.1631 8.30093,22.5075 0.005,4.49252 -0.26337,8.88002 -0.59722,9.75 -0.53507,1.39438 -4.20804,1.58179 -31,1.58179 -23.65945,0 -30.38814,0.27694 -30.37105,1.25 0.0474,2.69575 3.86885,9.51895 6.48296,11.57521 6.66428,5.24212 21.36912,5.47424 31.32998,0.49455 3.10219,-1.55087 5.93737,-2.95441 6.30041,-3.11899 0.36304,-0.16458 2.33012,2.44997 4.3713,5.81011 3.55381,5.8502 3.63238,6.16998 1.85231,7.53887 -8.55451,6.57846 -25.5937,10.30995 -38.37352,8.40359 z M 457,131.20862 c 0,-4.22497 -3.84675,-9.36255 -9.00807,-12.03088 -6.3094,-3.26186 -16.70735,-2.70663 -23.46382,1.25292 C 420.53591,122.77024 414,130.608 414,133.0558 c 0,0.36534 9.675,0.75456 21.5,0.86496 21.5,0.20071 21.5,0.20071 21.5,-2.71214 z"
       id="path57" />
    <path
       style="opacity:0.85182963;mix-blend-mode:normal;fill-opacity:1;fill:#000000;fill-rule:evenodd"
       d="m 271.63782,177.90993 c -20.16024,-2.9783 -32.36186,-19.72257 -28.72159,-39.41462 4.5023,-24.35517 27.07107,-39.65426 52.63417,-35.68005 21.73169,3.37855 32.97779,18.20674 29.57449,38.99452 -1.43245,8.74958 -5.11888,16.24623 -11.09757,22.56782 -10.38166,10.97707 -25.97974,15.95656 -42.3895,13.53233 z m 20.54669,-17.32724 c 8.46606,-4.01741 13.87698,-12.42244 14.53812,-22.58269 0.83863,-12.88789 -6.192,-20.02336 -19.68452,-19.97804 -8.03071,0.027 -13.39142,2.27895 -18.87462,7.92902 -4.5962,4.73606 -7.16349,11.27993 -7.16349,18.25928 0,8.58861 4.68339,15.48906 12,17.68065 4.75827,1.42528 14.87838,0.73517 19.18451,-1.30822 z"
       id="path56" />
    <path
       style="opacity:0.85183;mix-blend-mode:normal;fill:#0066ff;fill-opacity:1;fill-rule:evenodd;stroke-width:1.05882"
       d="M 6.2960801,197.25 C 4.8963145,194.20945 5.6514163,181.75368 7.644934,175 11.758109,161.06531 24.863858,142.27866 36.981312,131.95848 57.217819,114.72348 77.101966,102.971 111.81399,98.390845 137.34283,95.022389 143.77645,98.009977 156.63303,107.1636 171.25684,117.57544 87.799985,106.02446 41.650414,147.54574 30.413869,157.65539 22.676456,169.38196 14.957916,188 c -4.588851,11.06886 -6.758058,13.38536 -8.6618359,9.25 z"
       id="path55"
       sodipodi:nodetypes="ssssssss" />
    <path
       style="opacity:0.85182963;mix-blend-mode:normal;fill-opacity:1;fill:#000000;fill-rule:evenodd"
       d="m 609.99969,310.25 c -1.8e-4,-0.4125 4.11639,-21.3375 9.14792,-46.5 L 628.29585,218 h 10.488 c 10.488,0 10.488,0 9.87097,4.50168 -0.61702,4.50168 -0.61702,4.50168 3.17974,1.9891 12.0054,-7.94479 31.35333,-9.5015 43.16544,-3.47302 3.59166,1.83305 11,8.66375 11,10.1423 0,0.4547 2.1375,-0.81431 4.75,-2.82002 20.20083,-15.50894 49.87013,-14.60198 60.88776,1.86127 3.58254,5.35325 5.84926,15.71938 4.85866,22.21957 -0.78175,5.12971 -10.43883,54.46452 -11.12407,56.82912 -0.44309,1.52903 -1.88758,1.75 -11.43974,1.75 C 747.91968,311 743,310.8568 743,310.68178 c 0,-0.17503 2.475,-12.42722 5.5,-27.22711 3.025,-14.79988 5.4993,-28.71918 5.49845,-30.93177 -0.002,-5.28433 -2.68447,-10.43926 -6.89633,-13.25297 C 744.44159,237.49258 742.29673,237 737.21814,237 c -8.64257,0 -13.465,1.58492 -18.61463,6.1178 -6.56153,5.77569 -8.78939,12.09837 -14.66957,41.6322 L 698.70757,311 H 687.85378 C 678.91768,311 677,310.73743 677,309.51388 c 0,-0.81737 2.25,-12.56806 5,-26.11264 2.79387,-13.76064 4.99835,-27.33447 4.99626,-30.76387 -0.007,-11.22512 -5.03376,-15.65647 -17.71414,-15.61541 -7.37405,0.0239 -12.65493,1.87273 -17.83018,6.24239 -5.58112,4.71235 -8.07672,11.84762 -13.42641,38.38794 -2.75469,13.66624 -5.24592,25.86021 -5.53608,27.09771 -0.50755,2.1647 -0.94383,2.25 -11.5085,2.25 -6.03952,0 -10.98109,-0.3375 -10.98126,-0.75 z"
       id="path54" />
    <path
       style="opacity:0.85182963;mix-blend-mode:normal;fill-opacity:1;fill:#000000;fill-rule:evenodd"
       d="m 383.9599,310.25 c -0.022,-0.4125 5.71545,-29.4356 12.75,-64.49577 l 12.7901,-63.74577 10.75,-0.004 c 9.73194,-0.004 10.75,0.16819 10.75,1.81644 0,1.00137 -1.79904,10.75233 -3.99788,21.66879 -2.19883,10.91647 -3.81512,20.03087 -3.59175,20.25424 0.22336,0.22337 2.13491,-0.72048 4.24787,-2.09744 9.73683,-6.3452 29.35207,-8.18029 40.51601,-3.79045 10.26688,4.0371 16.06081,11.63104 18.1414,23.77744 1.02579,5.98852 0.74692,8.07797 -4.88603,36.60888 l -5.9739,30.25787 -11.34785,0.28387 c -8.90292,0.22272 -11.2481,0.007 -10.88488,-1 0.25463,-0.70613 2.85735,-13.43387 5.78383,-28.28387 5.86501,-29.76123 6.01357,-33.94545 1.39989,-39.42849 -1.35969,-1.61591 -4.09152,-3.47244 -6.07073,-4.12564 -5.33073,-1.7593 -17.9235,-0.74666 -22.96419,1.84665 -5.47313,2.81579 -11.46222,9.76927 -13.62253,15.81608 C 416.47756,259.16814 406,308.29076 406,310.69339 c 0,0.69037 -22.00315,0.24772 -22.0401,-0.44339 z"
       id="path53" />
    <path
       style="opacity:0.85182963;mix-blend-mode:normal;fill-opacity:1;fill:#000000;fill-rule:evenodd"
       d="m 233.99976,309.75 c -1.3e-4,-0.6875 5.69171,-29.7125 12.64852,-64.5 L 259.29703,182 h 10.85149 c 8.01051,0 10.85345,0.32726 10.85899,1.25 0.004,0.6875 -5.6909,29.7125 -12.65562,64.5 L 255.68876,311 h -10.84438 c -8.00871,0 -10.84444,-0.32686 -10.84462,-1.25 z"
       id="path52" />
    <path
       style="opacity:0.85182963;mix-blend-mode:normal;fill-opacity:1;fill:#000000;fill-rule:evenodd"
       d="m 89,310.52506 c 0,-0.29508 17.56986,-27.42143 39.04414,-60.28078 C 167.08828,190.5 167.08828,190.5 171.65401,189.70841 c 2.51115,-0.43538 7.75213,-0.66038 11.64662,-0.5 l 7.08088,0.29159 14.77973,59 c 8.12885,32.45 14.79301,59.80224 14.80924,60.78275 0.0269,1.6222 -0.97582,1.75729 -11.13395,1.5 L 197.67305,310.5 194.57093,297 191.4688,283.5 160.9844,283.28576 130.5,283.07152 121.95437,296.78576 C 113.40874,310.5 113.40874,310.5 101.20437,310.78078 94.491966,310.93521 89,310.82013 89,310.52506 Z M 186.63582,263.25 c -0.27442,-0.9625 -2.84305,-12.1 -5.70805,-24.75 -2.86501,-12.65 -5.53572,-23.36742 -5.93493,-23.81649 -0.61758,-0.69473 -30.11286,44.85972 -31.66592,48.90694 -0.45535,1.18662 2.96617,1.40955 21.63348,1.40955 20.64186,0 22.13989,-0.12095 21.67542,-1.75 z"
       id="path51" />
    <path
       style="opacity:0.85182963;mix-blend-mode:normal;fill-opacity:1;fill:#000000;fill-rule:evenodd"
       d="m 534.7601,310.50716 c -7.67245,-1.94644 -13.02562,-4.79032 -18.5,-9.82816 -8.85563,-8.14946 -12.40942,-16.79105 -12.36019,-30.05578 0.0588,-15.83643 4.64216,-27.34799 15.01142,-37.70246 14.46477,-14.44414 36.6128,-19.5446 55.66422,-12.81888 11.40129,4.02499 20.39963,13.1828 23.46856,23.88444 1.5953,5.56297 2.28204,15.24776 1.51597,21.37914 C 598.85609,271 598.85609,271 561.92804,271 532.02908,271 525,271.25097 525,272.3185 c 0,0.72517 0.68441,3.62316 1.52092,6.43998 1.84566,6.21503 7.46699,11.49744 13.98042,13.13754 10.91866,2.74935 26.68284,0.25182 34.09497,-5.40168 1.94428,-1.48297 3.67728,-2.53837 3.85113,-2.34533 2.18476,2.42606 8.55136,14.41174 8.17553,15.39114 -0.71884,1.87327 -8.80538,6.40447 -16.5034,9.24751 -8.42785,3.11258 -26.41945,3.98747 -35.35947,1.71946 z M 579,253.0651 c 0,-9.60549 -8.34096,-16.84115 -20.54281,-17.8206 -12.54714,-1.00716 -23.51634,5.0185 -29.06353,15.96535 C 526.96631,256 526.96631,256 552.98315,256 579,256 579,256 579,253.0651 Z"
       id="path50" />
    <path
       style="opacity:0.85182963;mix-blend-mode:normal;fill-opacity:1;fill:#000000;fill-rule:evenodd"
       d="m 315.7601,310.44216 c -7.59609,-1.8411 -12.97754,-4.68111 -18.5,-9.7632 C 288.38418,292.51083 285,284.04246 285,270 c 0,-24.00498 14.87012,-43.55454 38.5,-50.61547 14.70555,-3.4438 30.91728,-3.0126 43.83057,5.36298 5.27236,3.5714 12.63898,11.58802 12.65972,13.77676 0.005,0.56338 -4.26529,3.14792 -9.49029,5.74344 -5.225,2.59551 -9.5,4.30659 -9.5,3.80241 0,-1.87513 -5.38663,-7.2286 -9.37579,-9.31806 -3.11962,-1.63402 -15.97246,-4.78199 -26.80581,0.53799 -10.10832,4.96393 -16.70491,15.32957 -17.57442,27.61579 -0.82191,11.61372 2.62387,18.8496 11.13181,23.37597 6.26012,3.3305 19.12857,3.15435 26.62955,-0.36452 3.02794,-1.42047 6.85294,-4.14734 8.5,-6.05972 2.99466,-3.47706 2.99466,-3.47706 11.22183,1.96758 8.22718,5.44464 8.22718,5.44464 5.2752,9.17182 -10.80033,13.63652 -34.20659,20.30131 -54.24227,15.44515 z"
       id="path49" />
    <path
       style="opacity:0.85182963;mix-blend-mode:normal;fill-opacity:1;fill:#000000;fill-rule:evenodd"
       d="m 785.87063,345.02371 c -5.25024,-0.93383 -13.45917,-4.34137 -16.0017,-6.64232 -1.58671,-1.43596 -1.32514,-2.08066 3.7963,-9.35678 5.50044,-7.81455 5.50044,-7.81455 9.66761,-5.44519 9.2899,5.28203 18.50232,3.82292 25.40995,-4.02455 7.59885,-8.63275 7.89674,-4.40513 -3.72375,-52.8476 C 799.31848,242.94327 794.45608,222.2625 794.21369,220.75 793.773,218 793.773,218 804.7566,218 c 10.98359,0 10.98359,0 13.0126,8.75 1.11596,4.8125 4.62716,20.10975 7.80268,33.9939 3.17551,13.88414 5.86086,25.13414 5.96743,25 0.10657,-0.13415 9.32564,-14.8689 20.48681,-32.7439 11.16117,-17.875 20.81583,-33.07854 21.45481,-33.78564 0.84163,-0.93136 4.10123,-1.20693 11.82858,-1 l 10.66679,0.28564 -33.13026,52 c -35.95505,56.43368 -39.60612,61.68294 -46.92908,67.4714 -7.71255,6.09643 -19.65759,8.9001 -30.04633,7.05231 z"
       id="path48" />
    <path
       style="opacity:0.85182963;mix-blend-mode:normal;fill-opacity:1;fill:#aaccff;fill-rule:evenodd"
       d="M 35.55599,342.42298 C 42.893596,333.3256 52.588434,320.65011 60.352413,301.28328 64.223222,291.62775 68.641225,277 66.168606,277 64.867345,277 51.572872,263.15117 46.4892,256.5 43.966921,253.2 41.259465,249.7184 40.472633,248.76311 37.887741,245.62481 33.230635,235.5652 30.844014,227.96476 27.702602,217.9606 27.450248,196.58383 30.372227,188 c 3.004249,-8.82551 7.337699,-16.2447 12.922021,-22.12346 15.934956,-16.77515 34.680233,-24.56222 69.266132,-28.7742 25.24907,-3.07492 28.20539,-3.29036 28.93574,-2.10862 0.36509,0.59073 -1.80184,4.32131 -4.81541,8.29017 -12.01136,15.81894 -18.06161,27.85847 -29.758,59.21611 -2.83897,7.61121 -8.431586,30.23392 -12.912837,52.23381 -6.029776,29.6021 -10.187342,43.36915 -16.690058,55.26619 -11.112844,20.3315 -17.188808,23.96427 -31.767317,31.95391 -2.27056,1.24436 -15.139485,6.84549 -9.996508,0.46907 z M 68.868375,262.25 c 0.112487,-8.85268 7.875189,-43.67338 13.766149,-61.75 2.77325,-8.50982 11.818443,-27.89972 17.843236,-38.25 3.63806,-6.25 3.61974,-6.53446 0.33015,-6.17971 C 90.434862,157.18891 82.725451,159.50061 67,170.77007 53.398834,181.43612 47.877407,193.35498 47.900192,212 c 0.01405,11.49786 1.708106,18.32235 7.692389,30.98875 C 59.611611,251.49546 67.999358,267 68.582349,267 c 0.124119,0 0.252831,-2.1375 0.286026,-4.75 z"
       id="path1" />
  </g>
</svg>
